<svg xmlns="http://www.w3.org/2000/svg" viewBox="0 0 24 24" width="24" height="24" role="img" aria-label="WhatsApp">
  <path fill="#fff" d="M12.04 2C6.52 2 2.04 6.48 2.04 12c0 1.96.56 3.86 1.62 5.5L2 22l4.62-1.62A9.95 9.95 0 0 0 12.04 22c5.52 0 10-4.48 10-10s-4.48-10-10-10zm0 18a7.97 7.97 0 0 1-4.06-1.11l-.29-.17-2.71.95.92-2.64-.19-.3A8 8 0 1 1 20.04 12a8 8 0 0 1-8 8zm4.65-5.87c-.26-.13-1.52-.75-1.75-.84-.24-.09-.41-.13-.58.13-.17.26-.67.84-.82 1.01-.15.17-.3.2-.56.07-.26-.13-1.1-.41-2.1-1.31-.78-.69-1.3-1.55-1.45-1.81-.15-.26-.02-.41.11-.54.12-.12.26-.3.39-.45.13-.15.17-.26.26-.43.09-.17.04-.32-.02-.45-.07-.13-.58-1.41-.8-1.93-.21-.5-.43-.43-.58-.43h-.5c-.17 0-.45.07-.69.32-.24.26-.9.88-.9 2.15 0 1.27.92 2.5 1.05 2.67.13.17 1.8 2.75 4.37 3.86.61.26 1.08.42 1.45.54.61.2 1.17.17 1.61.1.49-.07 1.52-.62 1.73-1.22.21-.6.21-1.11.15-1.22-.06-.11-.24-.17-.5-.3z"/>
</svg>

